<?xml version="1.0" encoding="UTF-8"?>
<svg version="1.1" xmlns="http://www.w3.org/2000/svg" width="500" height="500">
<path d="M0 0 C0.66 0 1.32 0 2 0 C3.46888042 2.2632106 4.80671428 4.52466511 6.125 6.875 C10.46984501 14.44017052 14.97252092 21.89361786 19.5625 29.3125 C20.94971268 31.55829108 22.3366288 33.80425909 23.72265625 36.05078125 C24.07376465 36.61984192 24.42487305 37.18890259 24.78662109 37.77520752 C28.72387084 44.16357502 32.61231383 50.58139655 36.5 57 C42.12994976 66.29374162 47.79694915 75.56343768 53.5 84.8125 C55.4366732 87.95810411 57.37269797 91.10410528 59.30810547 94.25048828 C60.35552243 95.9526542 61.40384477 97.6542638 62.45361328 99.35498047 C65.03072874 103.53662369 67.54982166 107.74256201 70 112 C70.96679688 113.67255859 70.96679688 113.67255859 71.953125 115.37890625 C80.49670706 131.15581513 83.98041727 149.56853957 79 167 C61.51 167 44.02 167 26 167 C25.34 168.32 24.68 169.64 24 171 C23.34 171 22.68 171 22 171 C21.92705215 170.36995056 21.85410431 169.73990112 21.77894592 169.09075928 C21.01960608 162.53686161 20.25659903 155.98339832 19.49145508 149.43017578 C19.20633254 146.98399643 18.92214719 144.53770766 18.63891602 142.09130859 C18.23179152 138.57620565 17.82130516 135.06150921 17.41015625 131.546875 C17.28407486 130.4519574 17.15799347 129.35703979 17.02809143 128.22894287 C16.90804245 127.20818665 16.78799347 126.18743042 16.66430664 125.13574219 C16.5599379 124.23861511 16.45556915 123.34148804 16.34803772 122.41717529 C16.03185762 120.22125602 15.58391462 118.13837086 15 116 C14.01 116 13.02 116 12 116 C8.37 139.76 4.74 163.52 1 188 C0.34 188 -0.32 188 -1 188 C-3.31 174.47 -5.62 160.94 -8 147 C-9.32 147 -10.64 147 -12 147 C-14.31 153.27 -16.62 159.54 -19 166 C-36.16 166.33 -53.32 166.66 -71 167 C-71 167.99 -71 168.98 -71 170 C-52.85 170.33 -34.7 170.66 -16 171 C-15.01 167.7 -14.02 164.4 -13 161 C-12.34 160.01 -11.68 159.02 -11 158 C-9.07589149 163.15459372 -8.16826352 168.26139445 -7.30859375 173.66796875 C-7.158423 174.58459793 -7.00825226 175.50122711 -6.85353088 176.44563293 C-6.37686175 179.35885236 -5.90674509 182.27307632 -5.4375 185.1875 C-4.9638215 188.11248276 -4.48871356 191.03721517 -4.01075745 193.96150208 C-3.71423037 195.77737896 -3.42030547 197.59368309 -3.1292572 199.41044617 C-2.92883568 200.64236443 -2.92883568 200.64236443 -2.72436523 201.89916992 C-2.60826401 202.62053635 -2.49216278 203.34190277 -2.37254333 204.08512878 C-2.00216373 206.20890174 -2.00216373 206.20890174 -1 209 C-0.01 208.67 0.98 208.34 2 208 C2.12083954 207.16728073 2.24167908 206.33456146 2.36618042 205.47660828 C3.50582086 197.63271078 4.6527473 189.78992098 5.80788994 181.94829082 C6.40151542 177.91670558 6.99230615 173.88474703 7.57666016 169.85180664 C8.14060052 165.96048259 8.71193237 162.07030967 9.28842545 158.18082619 C9.5071638 156.69604977 9.72322698 155.21087672 9.93658066 153.725317 C10.23566058 151.64608967 10.54418517 149.56847054 10.85498047 147.4909668 C11.02818817 146.30738083 11.20139587 145.12379486 11.37985229 143.90434265 C12 141 12 141 14 138 C15.98 153.51 17.96 169.02 20 185 C20.99 185 21.98 185 23 185 C25.475 178.07 25.475 178.07 28 171 C44.5 171 61 171 78 171 C75.10509986 184.02705061 69.93556193 194.10324216 61 204 C60.15308594 204.95132813 60.15308594 204.95132813 59.2890625 205.921875 C45.76495581 220.27139665 25.92064603 228.28348355 6.44140625 229.16015625 C-15.26646468 229.78266137 -35.79226932 222.63428738 -51.79248047 207.79736328 C-66.07884424 193.84142617 -75.0222292 175.62293515 -75.38085938 155.4675293 C-75.34165892 138.12296002 -71.34068948 125.1381284 -63 110 C-62.46938965 109.02627441 -61.9387793 108.05254883 -61.39208984 107.04931641 C-54.2072582 93.8807891 -46.80185928 80.85281905 -39.20068359 67.91992188 C-35.04147921 60.82997009 -30.99688051 53.68256543 -27 46.5 C-20.67352678 35.13695164 -14.19421055 23.86709632 -7.57421875 12.67236328 C-6.48193295 10.81812005 -5.40203859 8.95654333 -4.33203125 7.08935547 C-3.53345703 5.71287842 -3.53345703 5.71287842 -2.71875 4.30859375 C-2.24373047 3.48029053 -1.76871094 2.6519873 -1.27929688 1.79858398 C-0.64604492 0.90828491 -0.64604492 0.90828491 0 0 Z " fill="#FB0101" transform="translate(244,53)"/>
<path d="M0 0 C6.12069723 3.32830541 9.53165832 7.21236469 11.8125 13.875 C12.1356629 15.90299221 12.38234894 17.94394593 12.57177734 19.98876953 C12.74490952 21.80826614 12.74490952 21.80826614 12.92153931 23.66452026 C13.09572891 25.62882492 13.09572891 25.62882492 13.2734375 27.6328125 C13.40116185 29.01803201 13.52929269 30.40321409 13.6578064 31.7883606 C14.99982195 46.40781825 16.15448498 61.04306818 17.27801514 75.68066406 C17.49311524 78.47161464 17.71165456 81.26229194 17.93013668 84.05297947 C25.74826745 183.99609778 25.74826745 183.99609778 -6.7890625 223.140625 C-14.14409809 231.52584473 -21.82099532 239.56728731 -29.78027344 247.37988281 C-43.44498796 260.81615072 -52.91795801 274.20278578 -59.00854492 292.53222656 C-60.36364596 296.42266238 -61.42721829 298.96570967 -65.1875 300.875 C-68.86043796 300.65462372 -70.55716546 300.50533454 -73.1875 297.875 C-74.49711248 281.45447428 -63.45550976 263.69534203 -53.328125 251.50390625 C-46.35518797 243.34877587 -38.97667892 235.53035718 -31.28125 228.0546875 C-7.22845204 204.68546659 5.09540261 177.13663614 6.06079102 143.40649414 C6.41791604 118.45765744 4.28420005 93.7304682 2.16229248 68.89129639 C1.7739167 64.30677895 1.39871738 59.7212221 1.02384281 55.13558388 C0.57435497 49.64465335 0.11760803 44.15433434 -0.33984375 38.6640625 C-0.42576216 37.62583973 -0.51168056 36.58761696 -0.60020256 35.51793289 C-0.84263417 32.60485831 -1.09023039 29.69227302 -1.33959961 26.77978516 C-1.41081024 25.91669235 -1.48202087 25.05359955 -1.5553894 24.16435242 C-1.83920954 20.90238703 -2.14802134 17.99343598 -3.1875 14.875 C-6.0900144 12.83539529 -8.69591798 11.52158926 -12.1875 10.875 C-12.496875 11.65875 -12.80625 12.4425 -13.125 13.25 C-14.1875 15.875 -14.1875 15.875 -15.1875 17.875 C-15.29452996 20.65532987 -15.34166763 23.41166634 -15.34521484 26.19262695 C-15.35029556 27.05295532 -15.35537628 27.91328369 -15.36061096 28.79968262 C-15.37132676 30.67180163 -15.37994218 32.54393356 -15.38673019 34.41607094 C-15.39850037 37.37910829 -15.41794871 40.34199864 -15.43984985 43.30497742 C-15.50152675 51.73085643 -15.55551108 60.15672124 -15.58886719 68.58276367 C-15.60980825 73.73341272 -15.64510895 78.88379535 -15.68962479 84.03429222 C-15.7037916 85.99784395 -15.71250876 87.96144283 -15.71567917 89.92504311 C-15.72058582 92.67337549 -15.74373803 95.42100067 -15.77099609 98.16918945 C-15.76798996 98.98028671 -15.76498383 99.79138397 -15.7618866 100.62705994 C-15.83615361 105.66730566 -16.550187 109.237687 -20.1875 112.875 C-25.51568533 113.33832046 -25.51568533 113.33832046 -28 111.625 C-30.65064451 107.71878704 -30.30916615 103.49470806 -30.30102539 98.90332031 C-30.30117142 98.2102327 -30.30131744 97.51714508 -30.3014679 96.80305481 C-30.30077307 94.51971267 -30.29300085 92.23645283 -30.28515625 89.953125 C-30.28329054 88.36700485 -30.28186736 86.78088412 -30.28086853 85.19476318 C-30.27705538 81.02563885 -30.26723537 76.8565495 -30.25616455 72.68743896 C-30.24592457 68.43095371 -30.24136537 64.17446278 -30.23632812 59.91796875 C-30.22561202 51.57029647 -30.20855004 43.22265259 -30.1875 34.875 C-33.1575 36.195 -36.1275 37.515 -39.1875 38.875 C-39.39123918 51.44740498 -38.80353359 63.79270033 -37.6875 76.3125 C-35.2068956 104.56752747 -35.2068956 104.56752747 -38.25 108.625 C-41.9770801 110.21099153 -44.29631112 109.79057385 -48.1875 108.875 C-49.90671697 103.5324823 -50.64738677 98.53621516 -51.0390625 92.94921875 C-51.10282074 92.12041702 -51.16657898 91.2916153 -51.23226929 90.43769836 C-51.43247297 87.81309271 -51.62254611 85.18786523 -51.8125 82.5625 C-51.94726798 80.78054978 -52.08267839 78.99864802 -52.21875 77.21679688 C-53.1875 64.41085386 -53.1875 64.41085386 -53.1875 61.875 C-55.8275 62.865 -58.4675 63.855 -61.1875 64.875 C-62.74241845 74.48633966 -61.41068549 83.49462037 -60.1875 93.0625 C-59.87913752 95.49049206 -59.57424313 97.91865626 -59.28051758 100.34846497 C-59.09893162 101.84993704 -58.90919215 103.35045489 -58.7097168 104.84965515 C-58.15937233 109.39003023 -58.23360323 113.39686634 -59.1875 117.875 C-60.875 119.375 -60.875 119.375 -63.1875 119.875 C-68.62228261 119.44021739 -68.62228261 119.44021739 -71.1875 116.875 C-71.76586914 114.54345703 -71.76586914 114.54345703 -72.22265625 111.6328125 C-72.39216797 110.56546875 -72.56167969 109.498125 -72.73632812 108.3984375 C-72.90583984 107.27695313 -73.07535156 106.15546875 -73.25 105 C-73.51006836 103.37578125 -73.51006836 103.37578125 -73.77539062 101.71875 C-79.19684593 66.90511362 -79.19684593 66.90511362 -74.125 58.125 C-69.05513387 51.77701636 -62.87136773 49.01811957 -55.1875 46.875 C-55.11273438 46.1015625 -55.03796875 45.328125 -54.9609375 44.53125 C-53.81862355 35.48233168 -51.28640248 30.49728591 -44.5 24.5 C-39.89010665 22.23854288 -35.24581498 21.5590426 -30.1875 20.875 C-30.10113281 20.2459375 -30.01476562 19.616875 -29.92578125 18.96875 C-28.913785 12.80392878 -27.58216621 7.49503371 -23.1875 2.875 C-15.34677659 -2.67153584 -8.71438286 -3.96459368 0 0 Z " fill="#07ACB1" transform="translate(415.1875,147.125)"/>
<path d="M0 0 C7.07651908 4.88978357 9.31701556 12.22630941 10.8203125 20.2578125 C11.449375 20.33257812 12.0784375 20.40734375 12.7265625 20.484375 C20.36188405 21.65727078 25.32721448 24.20859937 30.390625 30.078125 C34.01306371 35.1909385 34.68109401 40.08157409 34.8203125 46.2578125 C35.53316406 46.47695312 36.24601562 46.69609375 36.98046875 46.921875 C44.50580059 49.41343844 50.10660145 52.05634927 54.48046875 58.828125 C56.26900495 63.40636052 56.30981757 67.38202054 56.2578125 72.2578125 C56.25241455 73.23588867 56.2470166 74.21396484 56.24145508 75.22167969 C56.0681092 84.04930163 55.1371095 92.76153186 54.0078125 101.5078125 C53.88392654 102.50458008 53.88392654 102.50458008 53.75753784 103.52148438 C53.51672314 105.42001325 53.25294848 107.31558664 52.98828125 109.2109375 C52.76047974 110.85304199 52.76047974 110.85304199 52.52807617 112.52832031 C51.77833976 115.41968046 51.18291235 116.49309357 48.8203125 118.2578125 C45.6244995 119.43521729 44.32896571 119.47980706 41.18164062 118.10620117 C38.8203125 116.2578125 38.8203125 116.2578125 38.27929688 113.75512695 C38.32376953 112.782771 38.36824219 111.81041504 38.4140625 110.80859375 C38.45917969 109.73689941 38.50429687 108.66520508 38.55078125 107.56103516 C38.96443723 102.49150122 39.59167521 97.4782232 40.3203125 92.4453125 C41.25119838 85.45307162 42.1436718 78.50509306 42.2578125 71.4453125 C42.28681641 69.73408203 42.28681641 69.73408203 42.31640625 67.98828125 C42.06251653 65.18425599 42.06251653 65.18425599 40.10546875 63.43359375 C37.65973755 62.17519188 35.53585409 61.63497105 32.8203125 61.2578125 C32.74683594 62.91490234 32.74683594 62.91490234 32.671875 64.60546875 C32.23275805 73.96039184 31.64471115 83.29843574 30.8828125 92.6328125 C30.80820801 93.61258057 30.73360352 94.59234863 30.65673828 95.60180664 C29.89616271 104.53507006 29.89616271 104.53507006 27.8203125 108.2578125 C25.02161223 109.65716263 22.91532458 109.51046655 19.8203125 109.2578125 C18.1505127 107.98847961 18.1505127 107.98847961 16.8203125 106.2578125 C16.55330331 103.21417177 16.46939109 100.40237192 16.5390625 97.36328125 C16.54981812 96.47674362 16.56057373 95.59020599 16.57165527 94.67680359 C16.74514807 84.9456249 17.50123288 75.26458703 18.3203125 65.5703125 C18.53722351 62.94433051 18.75172736 60.31819579 18.96228027 57.69169617 C19.09179671 56.0818394 19.22501873 54.47227403 19.36291504 52.8631134 C19.78896394 47.64519303 19.87478563 42.49339386 19.8203125 37.2578125 C16.5203125 36.2678125 13.2203125 35.2778125 9.8203125 34.2578125 C9.82919495 35.17600769 9.83807739 36.09420288 9.847229 37.04022217 C9.92736671 45.69201755 9.98827276 54.34368834 10.02756119 62.9957695 C10.04843888 67.44395527 10.07675952 71.89183444 10.12207031 76.33984375 C10.16552207 80.63220484 10.18944824 84.92427098 10.19982147 89.21683502 C10.2072141 90.85473525 10.22165025 92.49261927 10.24323273 94.13039398 C10.27225897 96.42419859 10.27626901 98.71678356 10.27441406 101.01074219 C10.28329651 102.31646179 10.29217896 103.6221814 10.30133057 104.96746826 C9.8203125 108.2578125 9.8203125 108.2578125 8.01849365 110.71856689 C5.8203125 112.2578125 5.8203125 112.2578125 2.1953125 112.1328125 C-1.1796875 111.2578125 -1.1796875 111.2578125 -3.1796875 109.2578125 C-3.4581604 107.22245789 -3.4581604 107.22245789 -3.49853516 104.68237305 C-3.51840485 103.72924728 -3.53827454 102.77612152 -3.55874634 101.79411316 C-3.57029755 100.75475113 -3.58184875 99.7153891 -3.59375 98.64453125 C-3.61311615 97.565168 -3.6324823 96.48580475 -3.6524353 95.37373352 C-3.71233045 91.89767494 -3.7584689 88.42157701 -3.8046875 84.9453125 C-3.84289377 82.67511564 -3.88194702 80.40493286 -3.921875 78.13476562 C-4.11098862 66.83548193 -4.20268122 55.53983614 -4.18295288 44.23907471 C-4.17334508 37.88746218 -4.20961946 31.54379697 -4.4296875 25.1953125 C-4.44386719 24.27427734 -4.45804688 23.35324219 -4.47265625 22.40429688 C-4.61189135 17.11408765 -4.61189135 17.11408765 -7.2265625 12.63671875 C-7.87109375 12.18167969 -8.515625 11.72664062 -9.1796875 11.2578125 C-13.53523716 12.31967033 -13.53523716 12.31967033 -16.8117218 15.21604919 C-18.74267452 19.50965183 -18.93767273 23.57573049 -19.25463867 28.23852539 C-19.33310532 29.24100815 -19.41157196 30.24349091 -19.49241638 31.27635193 C-19.74864096 34.59355759 -19.98599621 37.91181429 -20.22265625 41.23046875 C-20.3968067 43.55202566 -20.57189577 45.87351233 -20.74787903 48.19493103 C-21.1147173 53.07087886 -21.47268256 57.94737087 -21.82397461 62.82446289 C-22.2706757 69.02146929 -22.73511412 75.21697709 -23.20591259 81.41219425 C-23.569573 86.21558428 -23.92550071 91.0195234 -24.27904701 95.82366753 C-24.44740998 98.10434219 -24.61761219 100.38488197 -24.7898159 102.66526985 C-26.12561738 120.46992424 -27.43243576 138.48442299 -25.0546875 156.2578125 C-24.92344482 157.25490234 -24.79220215 158.25199219 -24.65698242 159.27929688 C-21.1254176 183.81889473 -11.91872872 204.04786073 5.9375 221.37890625 C7.74998129 223.18762721 9.41240386 225.05756731 11.0703125 227.0078125 C14.10385228 230.54694225 17.37011378 233.8089302 20.6953125 237.0703125 C36.16189792 252.37621235 49.79447008 271.23615254 53.921875 293.0234375 C53.78818005 295.9647265 52.82652202 297.15339691 50.8203125 299.2578125 C48.09636775 300.23563882 46.56432467 300.50695999 43.80810547 299.58398438 C41.13955732 297.80364127 40.60314077 296.14081627 39.453125 293.1640625 C39.04191406 292.1328125 38.63070312 291.1015625 38.20703125 290.0390625 C37.79066406 288.95625 37.37429687 287.8734375 36.9453125 286.7578125 C32.79626832 276.07762307 28.37699187 266.30884403 20.3203125 258.0078125 C19.8147583 257.47260986 19.3092041 256.93740723 18.78833008 256.38598633 C14.1851144 251.5474625 9.43814454 246.84920605 4.69482422 242.14868164 C1.10940251 238.58582552 -2.34497024 234.96862112 -5.609375 231.10546875 C-7.41438812 228.98165977 -9.29844602 226.93930271 -11.1796875 224.8828125 C-33.05813658 200.10126152 -40.40616585 167.58359269 -40.38671875 135.25 C-40.38705423 134.53689541 -40.38738972 133.82379082 -40.38773537 133.089077 C-40.36954428 117.18353147 -39.32110519 101.40111826 -38.04139328 85.55444717 C-37.74341434 81.83986666 -37.45775484 78.1243322 -37.17016602 74.40893555 C-36.71979677 68.61131942 -36.26028596 62.81449643 -35.79492188 57.01806641 C-35.3416219 51.36483492 -34.9137616 45.71025162 -34.51054382 40.05322266 C-34.27583529 36.77291347 -34.02879436 33.49363317 -33.77774048 30.21453857 C-33.67273234 28.81212802 -33.57273313 27.4093311 -33.47836304 26.00616455 C-32.90478969 17.57240056 -32.15003399 9.62197879 -26.25 3.13671875 C-17.72743971 -2.63055598 -9.43522324 -5.29112519 0 0 Z " fill="#07ABB1" transform="translate(103.1796875,147.7421875)"/>
<path d="M0 0 C5.10668523 3.93944289 8.39304152 7.95573984 9.37109375 14.47265625 C9.75287638 29.36217867 0.34130092 41.52988408 -7.06884766 53.79052734 C-9.13962947 57.23205677 -11.18847757 60.68587598 -13.23046875 64.14453125 C-13.58599319 64.74646805 -13.94151764 65.34840485 -14.30781555 65.96858215 C-15.02139207 67.17691966 -15.73489859 68.38529851 -16.44833374 69.59371948 C-19.28753077 74.40266559 -22.13236583 79.20794544 -25 84 C-25.49757813 84.8343457 -25.99515625 85.66869141 -26.5078125 86.52832031 C-29.76027042 91.88013521 -29.76027042 91.88013521 -32 93 C-37.34090909 93.45454545 -37.34090909 93.45454545 -39.8125 91.75 C-41.24957408 89.63220662 -41.76250068 88.57362896 -42 86 C-40.98885701 83.51866751 -39.92009938 81.32994493 -38.625 79 C-38.2336084 78.27651367 -37.8422168 77.55302734 -37.43896484 76.80761719 C-33.40398217 69.48137218 -28.99645868 62.37794228 -24.625 55.25 C-19.35204737 46.6434551 -14.15872824 38.01703165 -9.375 29.125 C-8.90787598 28.28227539 -8.44075195 27.43955078 -7.95947266 26.57128906 C-6.05870033 22.95409776 -4.99447224 20.69649822 -5.02734375 16.5546875 C-5.83723626 13.65602415 -5.83723626 13.65602415 -9.1875 12 C-13.62339017 10.83648783 -14.99740986 10.83193034 -19 13 C-24.19111161 17.23584652 -28.23715818 22.65946142 -32.421875 27.84765625 C-36.94165861 33.41553142 -41.6756467 38.80375707 -46.40966797 44.18945312 C-47.41952708 45.33914843 -48.42668844 46.49122342 -49.43017578 47.64648438 C-58.33411089 57.87558172 -68.37349267 66.30169235 -78.9375 74.75 C-91.68161278 85.18892767 -95.08609622 95.57623466 -97.875 111.5625 C-98.12771765 112.9625879 -98.38148343 114.36248696 -98.63623047 115.76220703 C-99.30130781 119.42954902 -99.95442215 123.09891059 -100.60424805 126.76898193 C-101.76396617 133.3067945 -102.94364215 139.84106785 -104.125 146.375 C-104.25046204 147.0691803 -104.37592407 147.7633606 -104.50518799 148.47857666 C-105.98582258 156.65245798 -107.4916518 164.81801893 -109.25 172.9375 C-109.40098145 173.65276855 -109.55196289 174.36803711 -109.70751953 175.10498047 C-110.39007001 178.13451964 -110.75856434 179.75856434 -113 182 C-118.68348624 182.5412844 -118.68348624 182.5412844 -121 182 C-123.0671625 179.85307266 -123.9881582 178.68646536 -124.0402832 175.66479492 C-123.79797974 174.33605347 -123.79797974 174.33605347 -123.55078125 172.98046875 C-123.36700928 171.92182617 -123.1832373 170.86318359 -122.99389648 169.77246094 C-122.65660522 167.99790527 -122.65660522 167.99790527 -122.3125 166.1875 C-121.96164431 164.23253563 -121.61079017 162.27757098 -121.25996399 160.32260132 C-120.84459692 158.02752118 -120.42010769 155.73423469 -119.99511719 153.44091797 C-119.03488843 148.23036202 -118.12129675 143.01208803 -117.21058655 137.79267883 C-116.34734297 132.85303122 -115.47327844 127.91533208 -114.59725952 122.97793579 C-114.15933892 120.50348893 -113.72427471 118.02853476 -113.29214478 115.55307007 C-112.67286989 112.01776184 -112.0393032 108.48528437 -111.40234375 104.953125 C-111.22007233 103.89674332 -111.0378009 102.84036163 -110.8500061 101.75196838 C-107.02252001 80.84562774 -94.57508202 68.17056728 -78.33984375 55.6015625 C-72.26837224 50.89307439 -66.8142434 46.02175526 -61.83984375 40.15625 C-59.8173227 37.78590685 -57.72586152 35.48861695 -55.625 33.1875 C-52.53363199 29.76770672 -49.57540968 26.28041476 -46.6875 22.6875 C-43.19019898 18.37416207 -39.56423175 14.21626551 -35.8125 10.125 C-35.32547607 9.58963623 -34.83845215 9.05427246 -34.33666992 8.50268555 C-24.72271815 -1.87947094 -13.55965836 -7.03916691 0 0 Z " fill="#06ABB0" transform="translate(391,265)"/>
<path d="M0 0 C2.24915118 1.86520159 4.28121122 3.90202131 6.3125 6 C6.88226563 6.57959473 7.45203125 7.15918945 8.0390625 7.75634766 C12.15967857 12.00137284 15.95727184 16.43886211 19.64453125 21.06640625 C30.71707105 34.85658435 42.57604724 48.32221454 56.62890625 59.14453125 C69.5813008 69.2802601 79.32022634 79.34698384 82.859375 95.74609375 C83.02827744 96.51830765 83.19717987 97.29052155 83.37120056 98.08613586 C85.75283694 109.22574051 87.62634106 120.46396862 89.5625 131.6875 C90.33216214 136.12933926 91.10509431 140.57060088 91.87890625 145.01171875 C92.06119781 146.0671286 92.24348938 147.12253845 92.43130493 148.20993042 C93.21575914 152.71367755 94.01881516 157.2045856 94.97998047 161.67431641 C95.12644516 162.35814896 95.27290985 163.04198151 95.42381287 163.74653625 C95.80277853 165.4754342 96.19916084 167.2004912 96.59741211 168.92504883 C97.06797363 172.51918001 96.74757965 175.46124221 96 179 C94.25 181 94.25 181 92 182 C89.06597385 181.92843839 87.60933255 181.59528625 85.49609375 179.53076172 C83.26621041 175.75873647 82.53931253 171.82895664 81.625 167.5703125 C81.41294922 166.60989044 81.20089844 165.64946838 80.98242188 164.65994263 C77.94704425 150.55402684 75.70110208 136.28627632 73.375 122.04980469 C72.76277346 118.32000583 72.13256571 114.59358316 71.5 110.8671875 C71.32275391 109.7513327 71.14550781 108.63547791 70.96289062 107.48580933 C67.3451599 86.4270067 55.13568455 75.33103839 39.109375 62.7265625 C31.98069704 57.08472309 25.93684941 50.83970705 20 44 C19.27079346 43.16178711 19.27079346 43.16178711 18.52685547 42.30664062 C13.97221855 37.05642419 9.47248408 31.76045928 5.0078125 26.43359375 C4.523125 25.85665771 4.0384375 25.27972168 3.5390625 24.68530273 C2.21322499 23.10514798 0.89161603 21.52144796 -0.4296875 19.9375 C-5.27062965 14.08458275 -5.27062965 14.08458275 -11.4375 9.9375 C-15.18758757 10.02896555 -17.7473596 11.18602747 -21 13 C-22.07197171 14.68323824 -22.07197171 14.68323824 -22 17 C-21.07177882 19.59052578 -20.08159163 21.91719173 -18.875 24.375 C-18.52099121 25.11105469 -18.16698242 25.84710938 -17.80224609 26.60546875 C-13.25867599 35.81866008 -7.90584895 44.57398442 -2.59423828 53.35791016 C0.97280947 59.26948608 4.46741144 65.22364392 7.93945312 71.19140625 C8.93951534 72.89685304 9.96128091 74.58951962 10.984375 76.28125 C11.54640625 77.2403125 12.1084375 78.199375 12.6875 79.1875 C13.16574219 79.98542969 13.64398438 80.78335938 14.13671875 81.60546875 C15.28533717 84.79145559 14.94892776 86.77899169 14 90 C10.42762392 92.38158405 9.20126369 92.82377719 5 92 C-0.97091318 86.05623227 -4.81513808 77.7494332 -9 70.5 C-9.7444989 69.21840389 -10.48945974 67.93707602 -11.23486328 66.65600586 C-12.75167682 64.04789218 -14.26589976 61.43830005 -15.77832031 58.82763672 C-17.87999047 55.20262753 -19.9966332 51.58665283 -22.1171875 47.97265625 C-22.75269531 46.88855469 -23.38820313 45.80445313 -24.04296875 44.6875 C-25.23484018 42.65445705 -26.42750628 40.6218797 -27.62109375 38.58984375 C-37.46982898 21.74020034 -37.46982898 21.74020034 -35.57421875 11.7578125 C-33.93463998 5.78290582 -31.36374292 2.15573597 -26 -1 C-17.09534941 -5.07880807 -8.48180192 -4.98426191 0 0 Z " fill="#07ABB1" transform="translate(134,266)"/>
<path d="M0 0 C0.33 0 0.66 0 1 0 C1.17702208 9.83990607 1.34297381 19.67993049 1.49477577 29.52025986 C1.56561101 34.0894659 1.64026517 38.65854313 1.72363281 43.22753906 C1.80393954 47.6364684 1.87423311 52.04545391 1.93757248 56.45465851 C1.9635056 58.13722876 1.99305276 59.81974731 2.02626419 61.50218964 C2.07214933 63.85787046 2.10520673 66.21340728 2.13525391 68.56933594 C2.1517952 69.26561096 2.16833649 69.96188599 2.18537903 70.67926025 C2.21724033 74.30686092 1.99107545 76.91647118 0 80 C-6.625 80.25 -6.625 80.25 -10 78 C-10.31649561 75.54901516 -10.43745053 73.34403095 -10.43237305 70.88818359 C-10.4425647 70.15637375 -10.45275635 69.4245639 -10.46325684 68.670578 C-10.49350346 66.24645448 -10.50267021 63.8227253 -10.51171875 61.3984375 C-10.52855686 59.71976394 -10.54670591 58.04110306 -10.56611633 56.36245728 C-10.61371707 51.94018515 -10.64346102 47.51796438 -10.66955566 43.09552002 C-10.69931059 38.58441009 -10.74585819 34.07347739 -10.79101562 29.5625 C-10.87716319 20.70842584 -10.94445731 11.85431531 -11 3 C-9.171875 1.9453125 -9.171875 1.9453125 -7 1 C-4.25 1.875 -4.25 1.875 -2 3 C-1.34 2.01 -0.68 1.02 0 0 Z " fill="#02ACB2" transform="translate(397,178)"/>
<path d="M0 0 C0.33 0 0.66 0 1 0 C1.71604361 5.60456475 2.42800779 11.20962713 3.13623047 16.81518555 C3.37762771 18.72125167 3.62013045 20.62717812 3.86376953 22.53295898 C4.21418764 25.27551704 4.56060038 28.01855615 4.90625 30.76171875 C5.07030334 32.03543587 5.07030334 32.03543587 5.2376709 33.33488464 C5.72717955 37.24910711 6.14060753 41.04541313 6 45 C4.68 44.67 3.36 44.34 2 44 C2 43.34 2 42.68 2 42 C1.34 42 0.68 42 0 42 C-0.66 41.34 -1.32 40.68 -2 40 C-2.66 40 -3.32 40 -4 40 C-4 41.65 -4 43.3 -4 45 C-4.66 45 -5.32 45 -6 45 C-6 46.65 -6 48.3 -6 50 C-5.34 50.33 -4.68 50.66 -4 51 C-4.66 52.32 -5.32 53.64 -6 55 C-6.66 55 -7.32 55 -8 55 C-7.40259304 44.96897061 -5.92886618 35.09372644 -4.41601562 25.16967773 C-3.99622194 22.41268766 -3.5836412 19.65468365 -3.171875 16.89648438 C-2.90667085 15.13795731 -2.64106086 13.3794914 -2.375 11.62109375 C-2.25205566 10.79927109 -2.12911133 9.97744843 -2.00244141 9.13072205 C-1.51948248 5.981018 -1.00976183 3.02928549 0 0 Z " fill="#F20807" transform="translate(257,191)"/>
<path d="M0 0 C1.32 0.33 2.64 0.66 4 1 C4 1.66 4 2.32 4 3 C5.65 3 7.3 3 9 3 C10.47749003 5.95498007 10.16565337 8.63003769 10.20532227 11.92822266 C10.21522186 12.64052536 10.22512146 13.35282806 10.23532104 14.0867157 C10.26695858 16.44579726 10.2917023 18.80489897 10.31640625 21.1640625 C10.33697384 22.79788747 10.35797026 24.43170708 10.37937927 26.06552124 C10.43462013 30.36942216 10.4840205 34.67337126 10.53222656 38.97735596 C10.5824269 43.36776018 10.63812061 47.75809429 10.69335938 52.1484375 C10.80096558 60.76556575 10.90240506 69.38275258 11 78 C13.64 78.66 16.28 79.32 19 80 C18.67 80.66 18.34 81.32 18 82 C12.52887538 82.36474164 12.52887538 82.36474164 10.1875 80.75 C7.53685549 76.84378704 7.87833385 72.61970806 7.88647461 68.02832031 C7.88632858 67.3352327 7.88618256 66.64214508 7.8860321 65.92805481 C7.88672693 63.64471267 7.89449915 61.36145283 7.90234375 59.078125 C7.90420946 57.49200485 7.90563264 55.90588412 7.90663147 54.31976318 C7.91044462 50.15063885 7.92026463 45.9815495 7.93133545 41.81243896 C7.94157543 37.55595371 7.94613463 33.29946278 7.95117188 29.04296875 C7.96188798 20.69529647 7.97894996 12.34765259 8 4 C5.03 5.32 2.06 6.64 -1 8 C-1.33 11.63 -1.66 15.26 -2 19 C-2.33 19 -2.66 19 -3 19 C-3.05423638 17.08364783 -3.09289963 15.16685075 -3.125 13.25 C-3.14820313 12.18265625 -3.17140625 11.1153125 -3.1953125 10.015625 C-3.00118861 7.01835207 -2.49262148 5.54298475 -1 3 C-0.67 2.01 -0.34 1.02 0 0 Z " fill="#21A3AA" transform="translate(377,178)"/>
<path d="M0 0 C4.21228561 1.56010578 6.34546845 4.4845393 9 8 C10.00005304 11.00015912 10.11575585 12.97423756 10.09765625 16.10546875 C10.09443359 17.08837891 10.09121094 18.07128906 10.08789062 19.08398438 C10.07951172 20.10814453 10.07113281 21.13230469 10.0625 22.1875 C10.05798828 23.22326172 10.05347656 24.25902344 10.04882812 25.32617188 C10.0370401 27.88417266 10.02058515 30.44205733 10 33 C9.34 33 8.68 33 8 33 C8.01160156 31.68644531 8.02320313 30.37289062 8.03515625 29.01953125 C8.04453828 27.28385559 8.05363804 25.54817839 8.0625 23.8125 C8.07087891 22.94818359 8.07925781 22.08386719 8.08789062 21.19335938 C8.10396812 16.99713231 8.07559038 13.09063114 7 9 C6.95875 9.61875 6.9175 10.2375 6.875 10.875 C6.441875 11.926875 6.441875 11.926875 6 13 C2.9375 14.25 2.9375 14.25 0 15 C-0.33 14.67 -0.66 14.34 -1 14 C-1.33 20.6 -1.66 27.2 -2 34 C-2.99 34.495 -2.99 34.495 -4 35 C-3.97905273 34.38479492 -3.95810547 33.76958984 -3.93652344 33.13574219 C-3.85322983 30.34066191 -3.80129987 27.54584285 -3.75 24.75 C-3.71648437 23.78191406 -3.68296875 22.81382812 -3.6484375 21.81640625 C-3.45269069 16.17046772 -3.45269069 16.17046772 -6.015625 11.328125 C-6.67046875 10.88984375 -7.3253125 10.4515625 -8 10 C-6.02 10 -4.04 10 -2 10 C-1.814375 9.0409375 -1.814375 9.0409375 -1.625 8.0625 C-1.41875 7.381875 -1.2125 6.70125 -1 6 C-0.34 5.67 0.32 5.34 1 5 C1.33 4.01 1.66 3.02 2 2 C1.34 2 0.68 2 0 2 C0 1.34 0 0.68 0 0 Z " fill="#15A7AC" transform="translate(149,199)"/>
<path d="M0 0 C12.54 0 25.08 0 38 0 C38 0.66 38 1.32 38 2 C20.675 2.495 20.675 2.495 3 3 C3 3.99 3 4.98 3 6 C21.15 6.33 39.3 6.66 58 7 C58 7.33 58 7.66 58 8 C39.85 8 21.7 8 3 8 C2.67 9.32 2.34 10.64 2 12 C0.86235649 7.73383684 0 4.43513689 0 0 Z " fill="#D91A1B" transform="translate(170,217)"/>
<path d="M0 0 C0.33 0 0.66 0 1 0 C1.90932912 4.66303972 2.18301791 9.19992763 2.1875 13.9375 C2.19974609 14.61490234 2.21199219 15.29230469 2.22460938 15.99023438 C2.23881938 20.93058026 1.42277804 24.02027686 0 29 C-17.49 28.67 -34.98 28.34 -53 28 C-53 27.34 -53 26.68 -53 26 C-35.84 26 -18.68 26 -1 26 C-0.67 17.42 -0.34 8.84 0 0 Z " fill="#E71718" transform="translate(323,191)"/>
<path d="M0 0 C0.33 0 0.66 0 1 0 C1.50869827 3.6655138 2.00536408 7.33256427 2.5 11 C2.64308594 12.02996094 2.78617187 13.05992187 2.93359375 14.12109375 C3.69403874 19.80632532 4.16544234 25.26466539 4 31 C3.34 30.67 2.68 30.34 2 30 C1.5859375 27.93359375 1.5859375 27.93359375 1.375 25.4375 C1.30023438 24.61121094 1.22546875 23.78492188 1.1484375 22.93359375 C1.07496094 21.97646484 1.07496094 21.97646484 1 21 C-0.98 21.99 -0.98 21.99 -3 23 C-2.53430878 15.1812896 -1.77541538 7.63600985 0 0 Z " fill="#E81011" transform="translate(257,191)"/>
<path d="M0 0 C0.33 0 0.66 0 1 0 C3.36444597 7.75012845 3.36444597 7.75012845 1 13 C-1.10827417 19.65770791 -2.32852622 26.06143766 -3 33 C-3.495 33.495 -3.495 33.495 -4 34 C-4.36760731 36.32817964 -4.70241581 38.6618385 -5 41 C-4.34 41.33 -3.68 41.66 -3 42 C-3.66 42 -4.32 42 -5 42 C-5 42.66 -5 43.32 -5 44 C-5.66 44 -6.32 44 -7 44 C-6.41178175 34.45793645 -4.69624749 25.19012132 -2.9375 15.8125 C-2.65253963 14.27287063 -2.36803116 12.73315755 -2.08398438 11.19335938 C-1.39452175 7.46125538 -0.69897883 3.73033292 0 0 Z " fill="#1AA7AE" transform="translate(276,391)"/>
<path d="M0 0 C0.99 0.33 1.98 0.66 3 1 C2.13375 1.969375 1.2675 2.93875 0.375 3.9375 C-4.53017128 9.67957255 -9.09750792 15.58028088 -11 23 C-11.33 23 -11.66 23 -12 23 C-11.45144652 18.428721 -10.58255197 14.32564205 -9 10 C-8.34 10 -7.68 10 -7 10 C-7 8.35 -7 6.7 -7 5 C-5.35 5 -3.7 5 -2 5 C-2.33 4.01 -2.66 3.02 -3 2 C-2.01 1.34 -1.02 0.68 0 0 Z " fill="#16A4A9" transform="translate(307,339)"/>
<path d="M0 0 C1.32 0.99 2.64 1.98 4 3 C3.67 3.99 3.34 4.98 3 6 C2.360625 6.28875 1.72125 6.5775 1.0625 6.875 C-1.22982568 7.83956564 -1.22982568 7.83956564 -1.9375 10.375 C-3.27448384 13.67813656 -5.13649309 14.96540299 -8 17 C-8 12.90540797 -6.03072724 10.23249165 -4 6.8125 C-3.6184375 6.15830078 -3.236875 5.50410156 -2.84375 4.83007812 C-1.90161068 3.21666455 -0.95155734 1.60787702 0 0 Z " fill="#E30D0D" transform="translate(201,128)"/>
<path d="M0 0 C0.33 0 0.66 0 1 0 C1 2.97 1 5.94 1 9 C2.36125 8.7215625 2.36125 8.7215625 3.75 8.4375 C6.68314324 8.04265379 8.2644657 8.05308428 11 9 C11 7.02 11 5.04 11 3 C11.66 3 12.32 3 13 3 C12.25 9.75 12.25 9.75 10 12 C2.92631579 12.67368421 2.92631579 12.67368421 -0.0625 10.5 C-1.47192278 6.74153926 -0.71975242 3.92592229 0 0 Z " fill="#18A5AB" transform="translate(268,435)"/>
<path d="M0 0 C2.375 -0.125 2.375 -0.125 5 0 C7 2 7 2 7.22705078 4.98095703 C7.21134033 6.85050049 7.21134033 6.85050049 7.1953125 8.7578125 C7.1924826 9.42086395 7.18965271 10.08391541 7.18673706 10.76705933 C7.17553435 12.88655583 7.15043051 15.00563104 7.125 17.125 C7.11497028 18.56119182 7.10584441 19.99739025 7.09765625 21.43359375 C7.075595 24.95586628 7.04106494 28.47789203 7 32 C6.67 32 6.34 32 6 32 C5.34 21.77 4.68 11.54 4 1 C2.68 0.67 1.36 0.34 0 0 Z " fill="#1BA5AA" transform="translate(358,208)"/>
<path d="M0 0 C0.66 0 1.32 0 2 0 C1.28621973 8.13709505 -0.32773882 16.01731928 -2 24 C-2.33 24 -2.66 24 -3 24 C-4.28571429 16.57142857 -4.28571429 16.57142857 -3 13 C-3.66 12.67 -4.32 12.34 -5 12 C-3.625 9.5 -3.625 9.5 -2 7 C-1.34 7 -0.68 7 0 7 C0 4.69 0 2.38 0 0 Z " fill="#18A8AB" transform="translate(285,408)"/>
<path d="M0 0 C0.66 0 1.32 0 2 0 C2.85481185 9.508138 3.04377631 18.47754842 2 28 C1.67 28 1.34 28 1 28 C0.00736571 18.64087671 -0.10731538 9.39605802 0 0 Z " fill="#24A0A7" transform="translate(339,211)"/>
<path d="M0 0 C0.66 1.65 1.32 3.3 2 5 C1.46375 4.46375 0.9275 3.9275 0.375 3.375 C-1.99616786 1.66717737 -1.99616786 1.66717737 -5.0625 2.5 C-8.57276032 4.29247335 -9.31171256 5.48273449 -11 9 C-11.57154439 12.34498399 -11.57154439 12.34498399 -11.6875 15.8125 C-11.75324219 16.97394531 -11.81898437 18.13539063 -11.88671875 19.33203125 C-11.92410156 20.21246094 -11.96148437 21.09289062 -12 22 C-12.33 22 -12.66 22 -13 22 C-13 16.39 -13 10.78 -13 5 C-12.34 5 -11.68 5 -11 5 C-10.67 4.01 -10.34 3.02 -10 2 C-6.75515269 -0.28341107 -3.87540045 -0.17615457 0 0 Z " fill="#1CA5A8" transform="translate(96,157)"/>
<path d="M0 0 C0.99 0.33 1.98 0.66 3 1 C2.57674417 2.79508501 2.13589265 4.5860283 1.6875 6.375 C1.44386719 7.37273437 1.20023437 8.37046875 0.94921875 9.3984375 C0 12 0 12 -3 14 C-3.74926071 10.33694766 -4.2380014 7.57644848 -3 4 C-2.34 4 -1.68 4 -1 4 C-0.67 2.68 -0.34 1.36 0 0 Z " fill="#00AEB3" transform="translate(122,309)"/>
<path d="M0 0 C0.66 0.33 1.32 0.66 2 1 C2.4140625 3.28515625 2.4140625 3.28515625 2.625 6.0625 C2.69976562 6.98160156 2.77453125 7.90070313 2.8515625 8.84765625 C2.90054688 9.55792969 2.94953125 10.26820313 3 11 C0.69 11.66 -1.62 12.32 -4 13 C-3.52140759 11.39566191 -3.04210442 9.79153584 -2.5625 8.1875 C-2.29566406 7.29417969 -2.02882812 6.40085938 -1.75390625 5.48046875 C-1.19612127 3.64526945 -0.60655425 1.81966274 0 0 Z " fill="#E11614" transform="translate(232,211)"/>
<path d="M0 0 C0.66 0 1.32 0 2 0 C2.33 1.32 2.66 2.64 3 4 C1.68 4 0.36 4 -1 4 C-1.103125 4.9075 -1.20625 5.815 -1.3125 6.75 C-2.00649813 10.03071844 -2.70085668 11.60889095 -5 14 C-5.66 14 -6.32 14 -7 14 C-7 14.99 -7 15.98 -7 17 C-7.66 17 -8.32 17 -9 17 C-7.5143761 12.99624358 -5.63136615 9.38578153 -3.5 5.6875 C-2.58734375 4.08455078 -2.58734375 4.08455078 -1.65625 2.44921875 C-1.1096875 1.64097656 -0.563125 0.83273438 0 0 Z " fill="#E40F11" transform="translate(244,53)"/>
<path d="M0 0 C2.475 0.495 2.475 0.495 5 1 C5.33 1.99 5.66 2.98 6 4 C8.50447516 5.21869929 8.50447516 5.21869929 11 6 C11 6.66 11 7.32 11 8 C11.99 8 12.98 8 14 8 C15.54779543 10.26216255 16.77612283 12.55224566 18 15 C13.83583715 13.27264356 10.696362 10.40045314 7.3125 7.5 C6.42208008 6.75169922 6.42208008 6.75169922 5.51367188 5.98828125 C1.12948754 2.25897507 1.12948754 2.25897507 0 0 Z " fill="#1BA5A9" transform="translate(169,324)"/>
<path d="M0 0 C0 4.16067938 -0.9597973 7.98778958 -2 12 C-2.66 12 -3.32 12 -4 12 C-4.66 13.32 -5.32 14.64 -6 16 C-6.33 16 -6.66 16 -7 16 C-6.74791309 8.94156662 -4.59661939 5.28540945 0 0 Z " fill="#16A8AC" transform="translate(368,174)"/>
<path d="M0 0 C0.33 0 0.66 0 1 0 C3.69473112 11.06844106 3.69473112 11.06844106 2 17 C0.125 19 0.125 19 -2 20 C-2.99 19.67 -3.98 19.34 -5 19 C-3.68 18.67 -2.36 18.34 -1 18 C-1 16.68 -1 15.36 -1 14 C-0.34 14 0.32 14 1 14 C0.35520147 8.5035996 0.35520147 8.5035996 -0.625 3.0625 C-0.74875 2.381875 -0.8725 1.70125 -1 1 C-0.67 0.67 -0.34 0.34 0 0 Z " fill="#1BA6A8" transform="translate(228,428)"/>
<path d="M0 0 C0.66 0.33 1.32 0.66 2 1 C0.56877218 2.48523642 -0.87020889 3.96300462 -2.3125 5.4375 C-3.11300781 6.26121094 -3.91351563 7.08492188 -4.73828125 7.93359375 C-7 10 -7 10 -10 11 C-10.33 10.01 -10.66 9.02 -11 8 C-10.34 8 -9.68 8 -9 8 C-8.5875 7.236875 -8.175 6.47375 -7.75 5.6875 C-5.59446195 2.37720942 -3.64978088 1.39778842 0 0 Z " fill="#17A5AB" transform="translate(336,316)"/>
<path d="M0 0 C0.92039062 0.29197266 0.92039062 0.29197266 1.859375 0.58984375 C1.38886719 1.10933594 0.91835938 1.62882812 0.43359375 2.1640625 C-2.81502677 5.80278652 -5.83722972 9.25404088 -8.140625 13.58984375 C-9.3483808 9.96657636 -8.68373628 8.94838006 -7.140625 5.58984375 C-6.150625 5.58984375 -5.160625 5.58984375 -4.140625 5.58984375 C-4.140625 4.92984375 -4.140625 4.26984375 -4.140625 3.58984375 C-4.800625 3.25984375 -5.460625 2.92984375 -6.140625 2.58984375 C-2.66754808 -0.51111779 -2.66754808 -0.51111779 0 0 Z " fill="#19A5AB" transform="translate(372.140625,406.41015625)"/>
<path d="M0 0 C4.78775956 3.53613714 9.46451416 7.14483704 14 11 C12.68 11.33 11.36 11.66 10 12 C9.4225 11.175 8.845 10.35 8.25 9.5 C7.5075 8.675 6.765 7.85 6 7 C4.68 7 3.36 7 2 7 C1.34 4.69 0.68 2.38 0 0 Z " fill="#19A2A6" transform="translate(185,321)"/>
<path d="M0 0 C0.95370245 3.81480982 1.01435573 4.96243674 0.125 8.5625 C-0.05804688 9.32691406 -0.24109375 10.09132813 -0.4296875 10.87890625 C-0.8932958 12.60314807 -1.43538132 14.30614397 -2 16 C-2.66 16 -3.32 16 -4 16 C-4.33 17.32 -4.66 18.64 -5 20 C-5.66 19.67 -6.32 19.34 -7 19 C-4.69 12.73 -2.38 6.46 0 0 Z " fill="#1CA7AB" transform="translate(416,325)"/>
<path d="M0 0 C1.91385532 2.87078299 2.96432952 5.33411656 4.125 8.5625 C4.47820312 9.53316406 4.83140625 10.50382812 5.1953125 11.50390625 C6 14 6 14 6 16 C5.01 16 4.02 16 3 16 C2.67 16.66 2.34 17.32 2 18 C1.67 16.68 1.34 15.36 1 14 C1.66 14 2.32 14 3 14 C2.7834375 13.32453125 2.566875 12.6490625 2.34375 11.953125 C2.0653125 11.06109375 1.786875 10.1690625 1.5 9.25 C1.2215625 8.36828125 0.943125 7.4865625 0.65625 6.578125 C0 4 0 4 0 0 Z " fill="#19A4AA" transform="translate(81,324)"/>
<path d="M0 0 C0.99 0.66 1.98 1.32 3 2 C3 3.32 3 4.64 3 6 C2.01 6.66 1.02 7.32 0 8 C-0.78988145 9.95385067 -0.78988145 9.95385067 -1.1875 12.125 C-1.455625 13.40375 -1.72375 14.6825 -2 16 C-2.33 16 -2.66 16 -3 16 C-2.57910004 10.39538469 -2.08386889 5.27913453 0 0 Z " fill="#1BA7AE" transform="translate(284,352)"/>
<path d="M0 0 C0.33 0 0.66 0 1 0 C1.3396019 1.87387477 1.67138691 3.74916697 2 5.625 C2.185625 6.66914063 2.37125 7.71328125 2.5625 8.7890625 C2.98715797 11.90574865 3.07545206 14.85930812 3 18 C2.01 17.34 1.02 16.68 0 16 C-0.22107787 13.2114711 -0.28107535 10.65346819 -0.1875 7.875 C-0.17396484 7.12089844 -0.16042969 6.36679688 -0.14648438 5.58984375 C-0.11109985 3.72625873 -0.05729167 1.86304022 0 0 Z " fill="#E11113" transform="translate(235,223)"/>
<path d="M0 0 C0.66 1.32 1.32 2.64 2 4 C0.35 4.66 -1.3 5.32 -3 6 C-2.938125 6.78375 -2.87625 7.5675 -2.8125 8.375 C-2.874375 9.24125 -2.93625 10.1075 -3 11 C-3.99 11.66 -4.98 12.32 -6 13 C-6 8.61793033 -5.43228025 7.69573036 -3 4.25 C-2.443125 3.45078125 -1.88625 2.6515625 -1.3125 1.828125 C-0.879375 1.22484375 -0.44625 0.6215625 0 0 Z " fill="#19A4AA" transform="translate(358,404)"/>
<path d="M0 0 C1.47968324 0.14049518 2.95874516 0.28754826 4.4375 0.4375 C5.67306641 0.55931641 5.67306641 0.55931641 6.93359375 0.68359375 C9 1 9 1 10 2 C10.07179964 3.51928038 10.08392007 5.04167482 10.0625 6.5625 C10.05347656 7.38878906 10.04445313 8.21507812 10.03515625 9.06640625 C10.02355469 9.70449219 10.01195312 10.34257812 10 11 C9.01 11.495 9.01 11.495 8 12 C8.0825 11.0925 8.165 10.185 8.25 9.25 C8.29709715 5.95515515 8.29709715 5.95515515 6.25 3.75 C4.21043207 2.16366939 2.31578742 1.10924272 0 0 Z " fill="#1DA3A7" transform="translate(378,275)"/>
<path d="M0 0 C0.33 0 0.66 0 1 0 C1.33 2.64 1.66 5.28 2 8 C1.34 8 0.68 8 0 8 C0 9.65 0 11.3 0 13 C0.66 13.33 1.32 13.66 2 14 C1.34 15.32 0.68 16.64 0 18 C-0.66 18 -1.32 18 -2 18 C-1.03644647 5.33029613 -1.03644647 5.33029613 0 0 Z " fill="#E41618" transform="translate(251,228)"/>
<path d="M0 0 C1.32 0.33 2.64 0.66 4 1 C2.50164772 5.66154042 -0.88463591 6.86610751 -5 9 C-3.50163895 5.88801935 -1.80066242 2.9465385 0 0 Z " fill="#12A7AB" transform="translate(408,346)"/>
<path d="M0 0 C8.36628849 7.05024311 8.36628849 7.05024311 11 10 C11 10.66 11 11.32 11 12 C10.34 12 9.68 12 9 12 C8.34 11.01 7.68 10.02 7 9 C6.360625 8.71125 5.72125 8.4225 5.0625 8.125 C2.28797701 6.61162382 1.39373654 4.78747308 0 2 C0 1.34 0 0.68 0 0 Z " fill="#1DA3A4" transform="translate(164,301)"/>
<path d="M0 0 C0.99 0.33 1.98 0.66 3 1 C3 1.99 3 2.98 3 4 C3.94875 4.309375 4.8975 4.61875 5.875 4.9375 C9 6 9 6 11 7 C11 7.66 11 8.32 11 9 C5.73829306 7.58832253 2.27828642 5.25149768 -2 2 C-1.34 1.34 -0.68 0.68 0 0 Z " fill="#DB1114" transform="translate(202,265)"/>
<path d="M0 0 C5.35048061 0.37328935 7.50912907 1.9957657 11 6 C10.071875 5.979375 9.14375 5.95875 8.1875 5.9375 C4.97713989 5.84230396 4.97713989 5.84230396 2 7 C2 6.34 2 5.68 2 5 C2.66 5 3.32 5 4 5 C4 4.34 4 3.68 4 3 C2.0399719 1.36323743 2.0399719 1.36323743 0 0 Z " fill="#14A3A8" transform="translate(383,263)"/>
<path d="M0 0 C0.99 0 1.98 0 3 0 C3 0.99 3 1.98 3 3 C5.475 3.99 5.475 3.99 8 5 C8 5.66 8 6.32 8 7 C6.68428397 6.7452486 5.37239624 6.47065859 4.0625 6.1875 C3.33160156 6.03667969 2.60070312 5.88585937 1.84765625 5.73046875 C1.23792969 5.48941406 0.62820312 5.24835938 0 5 C-0.33 4.01 -0.66 3.02 -1 2 C-0.67 1.34 -0.34 0.68 0 0 Z " fill="#13A6A7" transform="translate(115,178)"/>
<path d="M0 0 C2.93200474 2.85276137 5.64315404 5.65079784 8 9 C7.67 9.66 7.34 10.32 7 11 C4.32423308 9.99382318 3.2214892 9.45785454 1.953125 6.8359375 C1.72109375 6.02382813 1.4890625 5.21171875 1.25 4.375 C1.00765625 3.55773437 0.7653125 2.74046875 0.515625 1.8984375 C0.34546875 1.27195312 0.1753125 0.64546875 0 0 Z " fill="#15A3A3" transform="translate(136,400)"/>
<path d="M0 0 C3.81684226 1.55500981 6.19195732 4.03595495 9 7 C8.34 7.66 7.68 8.32 7 9 C5.82737096 7.88121617 4.66204862 6.75476949 3.5 5.625 C2.8503125 4.99851562 2.200625 4.37203125 1.53125 3.7265625 C0 2 0 2 0 0 Z " fill="#0DC5C7" transform="translate(103,383)"/>
<path d="M0 0 C0.66 0.33 1.32 0.66 2 1 C0.33333333 2.66666667 -1.33333333 4.33333333 -3 6 C-3.556875 6.598125 -4.11375 7.19625 -4.6875 7.8125 C-6 9 -6 9 -8 9 C-6.64531705 4.12314139 -4.28324091 2.51407619 0 0 Z " fill="#19A6AA" transform="translate(397,147)"/>
<path d="M0 0 C2.875 0.5625 2.875 0.5625 6 2 C7.375 5.625 7.375 5.625 8 9 C1.42857143 3.85714286 1.42857143 3.85714286 0 0 Z " fill="#19A6A9" transform="translate(151,305)"/>
<path d="M0 0 C0.33 0.66 0.66 1.32 1 2 C3.02463255 2.65213292 3.02463255 2.65213292 5 3 C5.33 4.32 5.66 5.64 6 7 C4.68 7 3.36 7 2 7 C0.5393715 4.35261084 0 3.10551666 0 0 Z " fill="#1AA6A9" transform="translate(143,439)"/>
<path d="M0 0 C0.66 0.33 1.32 0.66 2 1 C1.00233891 3.49415272 0.31383315 4.78740335 -1.9375 6.3125 C-4 7 -4 7 -7 6 C-4.69 4.02 -2.38 2.04 0 0 Z " fill="#18A4AA" transform="translate(108,265)"/>
<path d="M0 0 C0.53625 0.639375 1.0725 1.27875 1.625 1.9375 C4.44367193 4.38529404 6.33860732 4.66714612 10 5 C9.67 5.66 9.34 6.32 9 7 C3.54545455 7.36363636 3.54545455 7.36363636 1.125 5.75 C0 4 0 4 0 0 Z " fill="#21A1AF" transform="translate(386,253)"/>
<path d="M0 0 C2.375 -0.125 2.375 -0.125 5 0 C5.66 0.66 6.32 1.32 7 2 C6.9765625 4.8203125 6.9765625 4.8203125 6.625 8.125 C6.51414062 9.22070312 6.40328125 10.31640625 6.2890625 11.4453125 C6.14597656 12.70988281 6.14597656 12.70988281 6 14 C5.67 14 5.34 14 5 14 C4.67 9.71 4.34 5.42 4 1 C2.68 0.67 1.36 0.34 0 0 Z " fill="#28AAAE" transform="translate(358,208)"/>
<path d="M0 0 C0.33 1.32 0.66 2.64 1 4 C-0.98 5.32 -2.96 6.64 -5 8 C-5.66 7.67 -6.32 7.34 -7 7 C-4.69 4.69 -2.38 2.38 0 0 Z " fill="#17A5A7" transform="translate(396,363)"/>
<path d="M0 0 C0.66 0 1.32 0 2 0 C3 3 3 3 2.22265625 4.82421875 C1.1484375 6.54947917 0.07421875 8.27473958 -1 10 C-1.68707555 7.50935112 -2 5.62113708 -2 3 C-1.34 3 -0.68 3 0 3 C0 2.01 0 1.02 0 0 Z " fill="#12A7AD" transform="translate(389,302)"/>
<path d="M0 0 C0.66 0 1.32 0 2 0 C2.66 2.97 3.32 5.94 4 9 C1.24338912 6.51015791 -0.60746455 4.79450934 -1 1 C-0.67 0.67 -0.34 0.34 0 0 Z " fill="#E30C0D" transform="translate(180,241)"/>
<path d="M0 0 C2.94721162 2.74395564 5.19168608 5.38337216 7 9 C6.67 9.66 6.34 10.32 6 11 C4.68 10.67 3.36 10.34 2 10 C2.04125 9.278125 2.0825 8.55625 2.125 7.8125 C1.99078695 4.79270631 1.24829381 2.73064271 0 0 Z " fill="#E2100F" transform="translate(264,85)"/>
<path d="M0 0 C0.7425 0.185625 1.485 0.37125 2.25 0.5625 C4.94990963 0.99203108 6.44631077 0.85122974 9 0 C9 0.66 9 1.32 9 2 C8.01 2 7.02 2 6 2 C6.33 3.32 6.66 4.64 7 6 C3.63279613 4.60667426 2.0140476 3.0210714 0 0 Z " fill="#E30E0E" transform="translate(193,260)"/>
<path d="M0 0 C2.34058637 2.12780579 3.70700306 4.11562221 5 7 C4.34 7.66 3.68 8.32 3 9 C0.70620251 5.55930376 0 4.27709699 0 0 Z " fill="#14ABAA" transform="translate(208,343)"/>
<path d="M0 0 C1.0625 1.875 1.0625 1.875 2 4 C1.67 4.66 1.34 5.32 1 6 C0.01 6 -0.98 6 -2 6 C-2 6.99 -2 7.98 -2 9 C-2.66 9 -3.32 9 -4 9 C-2.94124926 5.59687262 -1.99097846 2.98646769 0 0 Z " fill="#1AA4AB" transform="translate(381,295)"/>
<path d="M0 0 C0.33 0 0.66 0 1 0 C1.33 3.63 1.66 7.26 2 11 C1.67 10.34 1.34 9.68 1 9 C0.34 9 -0.32 9 -1 9 C-0.67 6.03 -0.34 3.06 0 0 Z " fill="#CF2828" transform="translate(257,191)"/>
<path d="M0 0 C2.72426311 2.35277269 3.8141763 4.62496331 5 8 C3.02 7.34 1.04 6.68 -1 6 C-0.67 4.02 -0.34 2.04 0 0 Z " fill="#DF0F15" transform="translate(299,142)"/>
<path d="M0 0 C1.17539996 0.92652701 2.34010577 1.86663387 3.5 2.8125 C4.1496875 3.33457031 4.799375 3.85664063 5.46875 4.39453125 C7 6 7 6 7 9 C3.46352496 7.32482761 2.2088437 6.50719183 0.6875 2.8125 C0.460625 1.884375 0.23375 0.95625 0 0 Z " fill="#23A2A5" transform="translate(122,384)"/>
<path d="M0 0 C1.32 0.33 2.64 0.66 4 1 C4.33 3.64 4.66 6.28 5 9 C0.57142857 3.85714286 0.57142857 3.85714286 0 0 Z " fill="#1AA6A4" transform="translate(130,343)"/>
<path d="M0 0 C1.98 1.65 3.96 3.3 6 5 C3.66666667 5 1.33333333 5 -1 5 C-1.33 3.68 -1.66 2.36 -2 1 C-1.34 0.67 -0.68 0.34 0 0 Z " fill="#18A2A6" transform="translate(141,274)"/>
<path d="M0 0 C0.33 0 0.66 0 1 0 C1 1.65 1 3.3 1 5 C-1.72842061 6.36421031 -3.60953318 5.87807211 -6.625 5.5625 C-7.62789063 5.46066406 -8.63078125 5.35882813 -9.6640625 5.25390625 C-10.43492187 5.17011719 -11.20578125 5.08632812 -12 5 C-12 4.67 -12 4.34 -12 4 C-6.555 3.505 -6.555 3.505 -1 3 C-0.67 2.01 -0.34 1.02 0 0 Z " fill="#DA1E22" transform="translate(323,214)"/>
<path d="M0 0 C0.99 0.66 1.98 1.32 3 2 C3 2.66 3 3.32 3 4 C3.99 5.485 3.99 5.485 5 7 C2.03 6.01 -0.94 5.02 -4 4 C-2.68 2.68 -1.36 1.36 0 0 Z " fill="#12A7A8" transform="translate(407,154)"/>
<path d="M0 0 C0.66 0 1.32 0 2 0 C1.75 3.375 1.75 3.375 1 7 C-1.0625 8.4375 -1.0625 8.4375 -3 9 C-3 8.01 -3 7.02 -3 6 C-2.01 6 -1.02 6 0 6 C0 4.02 0 2.04 0 0 Z " fill="#24A3A3" transform="translate(279,438)"/>
<path d="M0 0 C0.33 1.32 0.66 2.64 1 4 C0.34 4 -0.32 4 -1 4 C-1 5.65 -1 7.3 -1 9 C-1.99 9 -2.98 9 -4 9 C-2.94124926 5.59687262 -1.99097846 2.98646769 0 0 Z " fill="#18A6AA" transform="translate(364,324)"/>
<path d="M0 0 C0.99 0 1.98 0 3 0 C3 2.31 3 4.62 3 7 C0.7522025 4.94766315 -0.0022242 3.99332739 -1 1 C-0.67 0.67 -0.34 0.34 0 0 Z " fill="#15A7AA" transform="translate(124,331)"/>
<path d="M0 0 C0.33 0 0.66 0 1 0 C1.36923077 6.52307692 1.36923077 6.52307692 -0.5 8.9375 C-0.995 9.288125 -1.49 9.63875 -2 10 C-2.66 9.01 -3.32 8.02 -4 7 C-3.01 6.34 -2.02 5.68 -1 5 C-0.27034634 2.43717258 -0.27034634 2.43717258 0 0 Z " fill="#12AAAD" transform="translate(157,234)"/>
<path d="M0 0 C4 4.75 4 4.75 4 7 C2.35 7 0.7 7 -1 7 C-0.67 4.69 -0.34 2.38 0 0 Z " fill="#16A8AB" transform="translate(117,296)"/>
<path d="M0 0 C0.66 0 1.32 0 2 0 C2.33 1.32 2.66 2.64 3 4 C1.68 4 0.36 4 -1 4 C-1 4.66 -1 5.32 -1 6 C-1.66 5.67 -2.32 5.34 -3 5 C-1.625 2.5 -1.625 2.5 0 0 Z " fill="#D71719" transform="translate(244,53)"/>
</svg>
